%
M48
M72
T01C0.02362
T02C0.04000
T03C0.08661
%
T01
X21000Y31287
X64000Y46287
X146000Y31287
X189000Y46287
X271000Y31287
X314000Y46287
X271000Y161287
X314000Y176287
X271000Y291287
X314000Y306287
X189000Y306287
X146000Y291287
X64000Y306287
X21000Y291287
X64000Y176287
X21000Y161287
X146000Y161287
X189000Y176287
T02
X349000Y12287
X348000Y22287
X349000Y32287
X336500Y32287
X335500Y22287
X336500Y12287
X324000Y12287
X323000Y22287
X324000Y32287
X311500Y32287
X310500Y22287
X311500Y12287
X298500Y11587
X298500Y22987
X264000Y36287
X263000Y46287
X264000Y56287
X263000Y66287
X264000Y76287
X263000Y86287
X264000Y96287
X263000Y106287
X239000Y106287
X238000Y96287
X239000Y86287
X238000Y76287
X239000Y66287
X238000Y56287
X239000Y46287
X238000Y36287
X224000Y32287
X223000Y22287
X224000Y12287
X211500Y12287
X210500Y22287
X211500Y32287
X199000Y32287
X198000Y22287
X199000Y12287
X186500Y12287
X185500Y22287
X186500Y32287
X173500Y22987
X173500Y11587
X138000Y26287
X139000Y36287
X138000Y46287
X139000Y56287
X138000Y66287
X139000Y76287
X138000Y86287
X139000Y96287
X138000Y106287
X114000Y106287
X113000Y96287
X114000Y86287
X113000Y76287
X114000Y66287
X113000Y56287
X114000Y46287
X113000Y36287
X99000Y32287
X98000Y22287
X99000Y12287
X86500Y12287
X85500Y22287
X86500Y32287
X74000Y32287
X73000Y22287
X74000Y12287
X61500Y12287
X60500Y22287
X61500Y32287
X48500Y22987
X48500Y11587
X13000Y26287
X14000Y36287
X13000Y46287
X14000Y56287
X13000Y66287
X14000Y76287
X13000Y86287
X14000Y96287
X13000Y106287
X48500Y141587
X48500Y152987
X60500Y152287
X61500Y142287
X74000Y142287
X73000Y152287
X74000Y162287
X61500Y162287
X86500Y162287
X85500Y152287
X86500Y142287
X98000Y152287
X99000Y142287
X99000Y162287
X113000Y166287
X114000Y176287
X113000Y186287
X114000Y196287
X113000Y206287
X114000Y216287
X113000Y226287
X114000Y236287
X138000Y236287
X139000Y226287
X138000Y216287
X139000Y206287
X138000Y196287
X139000Y186287
X138000Y176287
X139000Y166287
X138000Y156287
X173500Y152987
X173500Y141587
X186500Y142287
X185500Y152287
X186500Y162287
X199000Y162287
X198000Y152287
X199000Y142287
X210500Y152287
X211500Y142287
X224000Y142287
X223000Y152287
X224000Y162287
X211500Y162287
X238000Y166287
X239000Y176287
X238000Y186287
X239000Y196287
X238000Y206287
X239000Y216287
X238000Y226287
X239000Y236287
X263000Y236287
X264000Y226287
X263000Y216287
X264000Y206287
X263000Y196287
X264000Y186287
X263000Y176287
X264000Y166287
X263000Y156287
X298500Y152987
X298500Y141587
X311500Y142287
X310500Y152287
X311500Y162287
X324000Y162287
X323000Y152287
X324000Y142287
X335500Y152287
X336500Y142287
X349000Y142287
X348000Y152287
X349000Y162287
X336500Y162287
X363000Y166287
X364000Y176287
X363000Y186287
X364000Y196287
X363000Y206287
X364000Y216287
X363000Y226287
X364000Y236287
X349000Y272287
X348000Y282287
X349000Y292287
X336500Y292287
X335500Y282287
X336500Y272287
X324000Y272287
X323000Y282287
X324000Y292287
X311500Y292287
X310500Y282287
X311500Y272287
X298500Y271587
X298500Y282987
X264000Y296287
X263000Y286287
X263000Y306287
X264000Y316287
X263000Y326287
X264000Y336287
X263000Y346287
X264000Y356287
X263000Y366287
X239000Y366287
X238000Y356287
X239000Y346287
X238000Y336287
X239000Y326287
X238000Y316287
X239000Y306287
X238000Y296287
X224000Y292287
X223000Y282287
X224000Y272287
X211500Y272287
X210500Y282287
X211500Y292287
X199000Y292287
X198000Y282287
X199000Y272287
X186500Y272287
X185500Y282287
X186500Y292287
X173500Y282987
X173500Y271587
X138000Y286287
X139000Y296287
X138000Y306287
X139000Y316287
X138000Y326287
X139000Y336287
X138000Y346287
X139000Y356287
X138000Y366287
X114000Y366287
X113000Y356287
X114000Y346287
X113000Y336287
X114000Y326287
X113000Y316287
X114000Y306287
X113000Y296287
X99000Y292287
X98000Y282287
X99000Y272287
X86500Y272287
X85500Y282287
X86500Y292287
X74000Y292287
X73000Y282287
X74000Y272287
X61500Y272287
X60500Y282287
X61500Y292287
X48500Y282987
X48500Y271587
X13000Y286287
X14000Y296287
X13000Y306287
X14000Y316287
X13000Y326287
X14000Y336287
X13000Y346287
X14000Y356287
X13000Y366287
X13000Y236287
X14000Y226287
X13000Y216287
X14000Y206287
X13000Y196287
X14000Y186287
X13000Y176287
X14000Y166287
X13000Y156287
X263000Y26287
X363000Y36287
X364000Y46287
X363000Y56287
X364000Y66287
X363000Y76287
X364000Y86287
X363000Y96287
X364000Y106287
X363000Y296287
X364000Y306287
X363000Y316287
X364000Y326287
X363000Y336287
X364000Y346287
X363000Y356287
X364000Y366287
T03
X363500Y13787
X263500Y13787
X238500Y13787
X138500Y13787
X113500Y13787
X13500Y13787
X13500Y118787
X13500Y143787
X113500Y143787
X113500Y118787
X138500Y118787
X138500Y143787
X238500Y143787
X238500Y118787
X263500Y118787
X263500Y143787
X363500Y143787
X363500Y118787
X363500Y248787
X363500Y273787
X263500Y273787
X263500Y248787
X238500Y248787
X238500Y273787
X138500Y273787
X138500Y248787
X113500Y248787
X113500Y273787
X13500Y273787
X13500Y248787
X13500Y378787
X113500Y378787
X138500Y378787
X238500Y378787
X263500Y378787
X363500Y378787
M30
