G75*
%MOIN*%
%OFA0B0*%
%FSLAX25Y25*%
%IPPOS*%
%LPD*%
%AMOC8*
5,1,8,0,0,1.08239X$1,22.5*
%
%ADD10C,0.00000*%
%ADD11R,0.05518X0.06306*%
%ADD12R,0.06306X0.05518*%
%ADD13R,0.05912X0.05912*%
%ADD14R,0.07800X0.07800*%
%ADD15C,0.07800*%
%ADD16R,0.06306X0.08274*%
%ADD17R,0.15361X0.08274*%
%ADD18C,0.13061*%
D10*
X0001000Y0001287D02*
X0376000Y0001287D01*
X0376000Y0391287D01*
X0001000Y0391287D01*
X0001000Y0001287D01*
D11*
X0027260Y0014287D03*
X0034740Y0014287D03*
X0152260Y0014287D03*
X0159740Y0014287D03*
X0277260Y0014287D03*
X0284740Y0014287D03*
X0284740Y0144287D03*
X0277260Y0144287D03*
X0159740Y0144287D03*
X0152260Y0144287D03*
X0034740Y0144287D03*
X0027260Y0144287D03*
X0027260Y0274287D03*
X0034740Y0274287D03*
X0152260Y0274287D03*
X0159740Y0274287D03*
X0277260Y0274287D03*
X0284740Y0274287D03*
D12*
X0305500Y0299047D03*
X0305500Y0306528D03*
X0180500Y0306528D03*
X0180500Y0299047D03*
X0180500Y0176528D03*
X0180500Y0169047D03*
X0180500Y0046528D03*
X0180500Y0039047D03*
X0055500Y0039047D03*
X0055500Y0046528D03*
X0055500Y0169047D03*
X0055500Y0176528D03*
X0055500Y0299047D03*
X0055500Y0306528D03*
X0305500Y0176528D03*
X0305500Y0169047D03*
X0305500Y0046528D03*
X0305500Y0039047D03*
D13*
X0291283Y0021287D03*
X0276717Y0021287D03*
X0166283Y0021287D03*
X0151717Y0021287D03*
X0041283Y0021287D03*
X0026717Y0021287D03*
X0026717Y0151287D03*
X0041283Y0151287D03*
X0151717Y0151287D03*
X0166283Y0151287D03*
X0276717Y0151287D03*
X0291283Y0151287D03*
X0291283Y0281287D03*
X0276717Y0281287D03*
X0166283Y0281287D03*
X0151717Y0281287D03*
X0041283Y0281287D03*
X0026717Y0281287D03*
D14*
X0113000Y0296287D03*
X0113000Y0166287D03*
X0113000Y0036287D03*
X0238000Y0036287D03*
X0363000Y0036287D03*
X0363000Y0166287D03*
X0238000Y0166287D03*
X0238000Y0296287D03*
X0363000Y0296287D03*
D15*
X0364000Y0306287D03*
X0363000Y0316287D03*
X0364000Y0326287D03*
X0363000Y0336287D03*
X0364000Y0346287D03*
X0363000Y0356287D03*
X0364000Y0366287D03*
X0349000Y0292287D03*
X0348000Y0282287D03*
X0349000Y0272287D03*
X0336500Y0272287D03*
X0335500Y0282287D03*
X0336500Y0292287D03*
X0324000Y0292287D03*
X0323000Y0282287D03*
X0324000Y0272287D03*
X0311500Y0272287D03*
X0310500Y0282287D03*
X0311500Y0292287D03*
X0298500Y0282987D03*
X0298500Y0271587D03*
X0264000Y0296287D03*
X0263000Y0286287D03*
X0263000Y0306287D03*
X0264000Y0316287D03*
X0263000Y0326287D03*
X0264000Y0336287D03*
X0263000Y0346287D03*
X0264000Y0356287D03*
X0263000Y0366287D03*
X0239000Y0366287D03*
X0238000Y0356287D03*
X0239000Y0346287D03*
X0238000Y0336287D03*
X0239000Y0326287D03*
X0238000Y0316287D03*
X0239000Y0306287D03*
X0224000Y0292287D03*
X0223000Y0282287D03*
X0224000Y0272287D03*
X0211500Y0272287D03*
X0210500Y0282287D03*
X0211500Y0292287D03*
X0199000Y0292287D03*
X0198000Y0282287D03*
X0199000Y0272287D03*
X0186500Y0272287D03*
X0185500Y0282287D03*
X0186500Y0292287D03*
X0173500Y0282987D03*
X0173500Y0271587D03*
X0138000Y0286287D03*
X0139000Y0296287D03*
X0138000Y0306287D03*
X0139000Y0316287D03*
X0138000Y0326287D03*
X0139000Y0336287D03*
X0138000Y0346287D03*
X0139000Y0356287D03*
X0138000Y0366287D03*
X0114000Y0366287D03*
X0113000Y0356287D03*
X0114000Y0346287D03*
X0113000Y0336287D03*
X0114000Y0326287D03*
X0113000Y0316287D03*
X0114000Y0306287D03*
X0099000Y0292287D03*
X0098000Y0282287D03*
X0099000Y0272287D03*
X0086500Y0272287D03*
X0085500Y0282287D03*
X0086500Y0292287D03*
X0074000Y0292287D03*
X0073000Y0282287D03*
X0074000Y0272287D03*
X0061500Y0272287D03*
X0060500Y0282287D03*
X0061500Y0292287D03*
X0048500Y0282987D03*
X0048500Y0271587D03*
X0013000Y0286287D03*
X0014000Y0296287D03*
X0013000Y0306287D03*
X0014000Y0316287D03*
X0013000Y0326287D03*
X0014000Y0336287D03*
X0013000Y0346287D03*
X0014000Y0356287D03*
X0013000Y0366287D03*
X0013000Y0236287D03*
X0014000Y0226287D03*
X0013000Y0216287D03*
X0014000Y0206287D03*
X0013000Y0196287D03*
X0014000Y0186287D03*
X0013000Y0176287D03*
X0014000Y0166287D03*
X0013000Y0156287D03*
X0048500Y0152987D03*
X0048500Y0141587D03*
X0061500Y0142287D03*
X0060500Y0152287D03*
X0061500Y0162287D03*
X0074000Y0162287D03*
X0073000Y0152287D03*
X0074000Y0142287D03*
X0086500Y0142287D03*
X0085500Y0152287D03*
X0086500Y0162287D03*
X0098000Y0152287D03*
X0099000Y0142287D03*
X0099000Y0162287D03*
X0114000Y0176287D03*
X0113000Y0186287D03*
X0114000Y0196287D03*
X0113000Y0206287D03*
X0114000Y0216287D03*
X0113000Y0226287D03*
X0114000Y0236287D03*
X0138000Y0236287D03*
X0139000Y0226287D03*
X0138000Y0216287D03*
X0139000Y0206287D03*
X0138000Y0196287D03*
X0139000Y0186287D03*
X0138000Y0176287D03*
X0139000Y0166287D03*
X0138000Y0156287D03*
X0173500Y0152987D03*
X0173500Y0141587D03*
X0186500Y0142287D03*
X0185500Y0152287D03*
X0186500Y0162287D03*
X0199000Y0162287D03*
X0198000Y0152287D03*
X0199000Y0142287D03*
X0210500Y0152287D03*
X0211500Y0142287D03*
X0224000Y0142287D03*
X0223000Y0152287D03*
X0224000Y0162287D03*
X0211500Y0162287D03*
X0239000Y0176287D03*
X0238000Y0186287D03*
X0239000Y0196287D03*
X0238000Y0206287D03*
X0239000Y0216287D03*
X0238000Y0226287D03*
X0239000Y0236287D03*
X0263000Y0236287D03*
X0264000Y0226287D03*
X0263000Y0216287D03*
X0264000Y0206287D03*
X0263000Y0196287D03*
X0264000Y0186287D03*
X0263000Y0176287D03*
X0264000Y0166287D03*
X0263000Y0156287D03*
X0298500Y0152987D03*
X0298500Y0141587D03*
X0311500Y0142287D03*
X0310500Y0152287D03*
X0311500Y0162287D03*
X0324000Y0162287D03*
X0323000Y0152287D03*
X0324000Y0142287D03*
X0335500Y0152287D03*
X0336500Y0142287D03*
X0349000Y0142287D03*
X0348000Y0152287D03*
X0349000Y0162287D03*
X0336500Y0162287D03*
X0364000Y0176287D03*
X0363000Y0186287D03*
X0364000Y0196287D03*
X0363000Y0206287D03*
X0364000Y0216287D03*
X0363000Y0226287D03*
X0364000Y0236287D03*
X0364000Y0106287D03*
X0363000Y0096287D03*
X0364000Y0086287D03*
X0363000Y0076287D03*
X0364000Y0066287D03*
X0363000Y0056287D03*
X0364000Y0046287D03*
X0349000Y0032287D03*
X0348000Y0022287D03*
X0349000Y0012287D03*
X0336500Y0012287D03*
X0335500Y0022287D03*
X0336500Y0032287D03*
X0324000Y0032287D03*
X0323000Y0022287D03*
X0324000Y0012287D03*
X0311500Y0012287D03*
X0310500Y0022287D03*
X0311500Y0032287D03*
X0298500Y0022987D03*
X0298500Y0011587D03*
X0264000Y0036287D03*
X0263000Y0046287D03*
X0264000Y0056287D03*
X0263000Y0066287D03*
X0264000Y0076287D03*
X0263000Y0086287D03*
X0264000Y0096287D03*
X0263000Y0106287D03*
X0239000Y0106287D03*
X0238000Y0096287D03*
X0239000Y0086287D03*
X0238000Y0076287D03*
X0239000Y0066287D03*
X0238000Y0056287D03*
X0239000Y0046287D03*
X0224000Y0032287D03*
X0223000Y0022287D03*
X0224000Y0012287D03*
X0211500Y0012287D03*
X0210500Y0022287D03*
X0211500Y0032287D03*
X0199000Y0032287D03*
X0198000Y0022287D03*
X0199000Y0012287D03*
X0186500Y0012287D03*
X0185500Y0022287D03*
X0186500Y0032287D03*
X0173500Y0022987D03*
X0173500Y0011587D03*
X0138000Y0026287D03*
X0139000Y0036287D03*
X0138000Y0046287D03*
X0139000Y0056287D03*
X0138000Y0066287D03*
X0139000Y0076287D03*
X0138000Y0086287D03*
X0139000Y0096287D03*
X0138000Y0106287D03*
X0114000Y0106287D03*
X0113000Y0096287D03*
X0114000Y0086287D03*
X0113000Y0076287D03*
X0114000Y0066287D03*
X0113000Y0056287D03*
X0114000Y0046287D03*
X0099000Y0032287D03*
X0098000Y0022287D03*
X0099000Y0012287D03*
X0086500Y0012287D03*
X0085500Y0022287D03*
X0086500Y0032287D03*
X0074000Y0032287D03*
X0073000Y0022287D03*
X0074000Y0012287D03*
X0061500Y0012287D03*
X0060500Y0022287D03*
X0061500Y0032287D03*
X0048500Y0022987D03*
X0048500Y0011587D03*
X0013000Y0026287D03*
X0014000Y0036287D03*
X0013000Y0046287D03*
X0014000Y0056287D03*
X0013000Y0066287D03*
X0014000Y0076287D03*
X0013000Y0086287D03*
X0014000Y0096287D03*
X0013000Y0106287D03*
X0263000Y0026287D03*
D16*
X0278945Y0034386D03*
X0288000Y0034386D03*
X0297055Y0034386D03*
X0172055Y0034386D03*
X0163000Y0034386D03*
X0153945Y0034386D03*
X0047055Y0034386D03*
X0038000Y0034386D03*
X0028945Y0034386D03*
X0028945Y0164386D03*
X0038000Y0164386D03*
X0047055Y0164386D03*
X0153945Y0164386D03*
X0163000Y0164386D03*
X0172055Y0164386D03*
X0278945Y0164386D03*
X0288000Y0164386D03*
X0297055Y0164386D03*
X0297055Y0294386D03*
X0288000Y0294386D03*
X0278945Y0294386D03*
X0172055Y0294386D03*
X0163000Y0294386D03*
X0153945Y0294386D03*
X0047055Y0294386D03*
X0038000Y0294386D03*
X0028945Y0294386D03*
D17*
X0038000Y0319189D03*
X0163000Y0319189D03*
X0288000Y0319189D03*
X0288000Y0189189D03*
X0163000Y0189189D03*
X0038000Y0189189D03*
X0038000Y0059189D03*
X0163000Y0059189D03*
X0288000Y0059189D03*
D18*
X0263500Y0013787D03*
X0238500Y0013787D03*
X0138500Y0013787D03*
X0113500Y0013787D03*
X0013500Y0013787D03*
X0013500Y0118787D03*
X0013500Y0143787D03*
X0113500Y0143787D03*
X0113500Y0118787D03*
X0138500Y0118787D03*
X0138500Y0143787D03*
X0238500Y0143787D03*
X0238500Y0118787D03*
X0263500Y0118787D03*
X0263500Y0143787D03*
X0363500Y0143787D03*
X0363500Y0118787D03*
X0363500Y0013787D03*
X0363500Y0248787D03*
X0363500Y0273787D03*
X0263500Y0273787D03*
X0263500Y0248787D03*
X0238500Y0248787D03*
X0238500Y0273787D03*
X0138500Y0273787D03*
X0138500Y0248787D03*
X0113500Y0248787D03*
X0113500Y0273787D03*
X0013500Y0273787D03*
X0013500Y0248787D03*
X0013500Y0378787D03*
X0113500Y0378787D03*
X0138500Y0378787D03*
X0238500Y0378787D03*
X0263500Y0378787D03*
X0363500Y0378787D03*
M02*
